<svg width="150" height="151" viewBox="0 0 150 151" fill="none" xmlns="http://www.w3.org/2000/svg">
<g clip-path="url(#clip0_501_70)">
<path d="M91.0214 5.12884C91.0214 2.51888 88.9036 0.387574 86.2988 0.551873C78.0622 1.0714 69.9566 2.94724 62.312 6.11376C53.21 9.88394 44.9396 15.41 37.9732 22.3764C31.0069 29.3428 25.4809 37.613 21.7107 46.715C17.9405 55.8172 16 65.5726 16 75.4246C16 85.2766 17.9405 95.032 21.7107 104.134C25.4809 113.236 31.0069 121.506 37.9732 128.473C44.9396 135.439 53.21 140.965 62.312 144.735C69.9566 147.902 78.0622 149.778 86.2988 150.297C88.9036 150.462 91.0214 148.33 91.0214 145.72V5.12884Z" fill="url(#paint0_linear_501_70)"/>
<path d="M131.19 20.4875C131.19 17.8775 129.071 15.7415 126.47 15.9563C112.688 17.0945 99.687 23.1884 89.8378 33.2366C78.8704 44.4256 72.709 59.601 72.709 75.4246C72.709 91.248 78.8704 106.423 89.8378 117.612C99.687 127.661 112.688 133.755 126.47 134.893C129.071 135.108 131.19 132.971 131.19 130.361V20.4875Z" fill="url(#paint1_linear_501_70)"/>
</g>
<defs>
<linearGradient id="paint0_linear_501_70" x1="15.0903" y1="166.212" x2="132.5" y2="-18.3447" gradientUnits="userSpaceOnUse">
<stop stop-color="#0194FF"/>
<stop offset="1" stop-color="#1FF8D1"/>
</linearGradient>
<linearGradient id="paint1_linear_501_70" x1="71.9998" y1="147.543" x2="166" y2="2.54291" gradientUnits="userSpaceOnUse">
<stop stop-color="#0194FF"/>
<stop offset="1" stop-color="#1FF8D1"/>
</linearGradient>
<clipPath id="clip0_501_70">
<rect width="150" height="150" fill="white" transform="translate(0 0.5)"/>
</clipPath>
</defs>
</svg>
